# AST/ASF file generated using VICON BodyLanguage
# -----------------------------------------------
:version 1.10
:name VICON
:units
  mass 1.0
  length 0.45
  angle deg
:documentation
   .ast/.asf automatically generated from VICON data using
   VICON BodyBuilder and BodyLanguage model FoxedUp or BRILLIANT.MOD
:root
   order TX TY TZ RX RY RZ
   axis XYZ
   position 0 0 0  
   orientation 0 0 0 
:bonedata
  begin
     id 1 
     name lhipjoint
     direction 0.570549 -0.739093 0.358072 
     length 2.41801 
     axis 0 0 0  XYZ
  end
  begin
     id 2 
     name lfemur
     direction 0.34202 -0.939693 0  
     length 7.44434  
     axis 0 0 20  XYZ
    dof rx ry rz
    limits (-160.0 20.0)
           (-70.0 70.0)
           (-60.0 70.0)
  end
  begin
     id 3 
     name ltibia
     direction 0.34202 -0.939693 0   
     length 7.60047   
     axis 0 0 20   XYZ
    dof rx
    limits (-10.0 170.0)
  end
  begin
     id 4 
     name lfoot
     direction 0.0909041 -0.249757 0.964032   
     length 2.03437   
     axis -90 7.62852e-016 20   XYZ
    dof rx rz
    limits (-45.0 90.0)
           (-70.0 20.0)
  end
  begin
     id 5 
     name ltoes
     direction 1.53547e-011 -4.2174e-011 1   
     length 1.02054   
     axis -90 7.62852e-016 20   XYZ
    dof rx
    limits (-90.0 20.0)
  end
  begin
     id 6 
     name rhipjoint
     direction -0.558096 -0.746754 0.361784   
     length 2.3932  
     axis 0 0 0  XYZ 
  end
  begin
     id 7 
     name rfemur
     direction -0.34202 -0.939693 0   
     length 7.3886   
     axis 0 0 -20   XYZ
    dof rx ry rz
    limits (-160.0 20.0)
           (-70.0 70.0)
           (-70.0 60.0)
  end
  begin
     id 8 
     name rtibia
     direction -0.34202 -0.939693 0   
     length 7.4839   
     axis 0 0 -20   XYZ
    dof rx
    limits (-10.0 170.0)
 end
 begin
     id 9 
     name rfoot
     direction -0.114619 -0.314914 0.942174   
     length 2.25127  
     axis -90 -7.62852e-016 -20   XYZ
    dof rx rz
    limits (-45.0 90.0)
           (-20.0 70.0)
  end
  begin
     id 10 
     name rtoes
     direction -1.53518e-011 -4.21881e-011 1   
     length 1.11821   
     axis -90 -7.62852e-016 -20   XYZ
    dof rx
    limits (-90.0 20.0)
  end
  begin
     id 11 
     name lowerback
     direction -0.00902269 0.996426 -0.0839821   
     length 2.25052   
     axis 0 0 0   XYZ
    dof rx ry rz
    limits (-20.0 45.0)
           (-30.0 30.0)
           (-30.0 30.0)
  end
  begin
     id 12 
     name upperback
     direction 0.0370973 0.999169 -0.0168941   
     length 2.24876   
     axis 0 0 0   XYZ
    dof rx ry rz
    limits (-20.0 45.0)
           (-30.0 30.0)
           (-30.0 30.0)
  end
  begin
     id 13 
     name thorax
     direction 0.0402726 0.998931 0.0227027   
     length 2.26408   
     axis 0 0 0   XYZ
    dof rx ry rz
    limits (-20.0 45.0)
           (-30.0 30.0)
           (-30.0 30.0)
  end
  begin
     id 14 
     name lowerneck
     direction -0.0733697 0.98508 0.155675   
     length 1.58204   
     axis 0 0 0   XYZ
    dof rx ry rz
    limits (-20.0 45.0)
           (-30.0 30.0)
           (-30.0 30.0)
  end
  begin
     id 15 
     name upperneck
     direction 0.0426554 0.993501 -0.105526   
     length 1.61222   
     axis 0 0 0   XYZ
    dof rx ry rz
    limits (-20.0 45.0)
           (-30.0 30.0)
           (-30.0 30.0)
  end
  begin
     id 16
     name head
     direction 0.020792 0.998384 -0.0528868  
     length 1.61527  
     axis 0 0 0   XYZ
    dof rx ry rz
    limits (-20.0 45.0)
           (-30.0 30.0)
           (-30.0 30.0)
  end
  begin
     id 17 
     name lclavicle
     direction 0.967109 0.155462 -0.201325  
     length 3.59357  
     axis 0 0 0   XYZ
    dof ry rz
    limits (-20.0 10.0)
           (0.0 20.0)
  end
  begin
     id 18 
     name lhumerus
     direction 1 -4.48968e-011 2.38195e-027   
     length 5.38154   
     axis 180 -30 -90   XYZ
    dof rx ry rz
    limits (-60.0 90.0)
           (-90.0 90.0)
           (-90.0 90.0)
  end
  begin
     id 19
     name lradius
     direction 1 -4.48961e-011 4.85371e-027   
     length 3.33312   
     axis 180 -30 -90   XYZ
    dof rx
    limits (-10.0 170.0)
  end
  begin
     id 20
     name lwrist
     direction 1 -4.48961e-011 4.76515e-027   
     length 1.66656   
     axis -3.27502e-015 90 90   XYZ
    dof ry
    limits (-180.0 0.0)
 end
  begin
     id 21 
     name lhand
     direction 1 -4.48951e-011 9.53074e-027   
     length 0.710789   
     axis -6.08098e-015 90 90   XYZ
    dof rx rz
    limits (-90.0 90.0)
           (-45.0 45.0)
  end
  begin
     id 22 
     name lfingers
     direction 1 -4.48953e-011 1.90613e-026   
     length 0.573057   
     axis -1.21619e-014 90 90   XYZ
    dof rx
    limits (0.0 90.0)
  end
  begin
     id 23
     name lthumb
     direction 0.707107 -6.34973e-011 0.707107   
     length 0.822798   
     axis -90 45 -9.86923e-015   XYZ
    dof rx rz
    limits (-45.0 45.0)
           (-45.0 45.0)
  end
  begin
     id 24 
     name rclavicle
     direction -0.9585 0.265289 -0.104398   
     length 3.42039  
     axis 0 0 0   XYZ 
    dof ry rz
    limits (-10.0 20.0)
           (-20.0 0.0)
  end
  begin
     id 25 
     name rhumerus
     direction -1 -4.48977e-011 2.21478e-027  
     length 5.16954   
     axis 180 30 90   XYZ
    dof rx ry rz
    limits (-90.0 60.0)
           (-90.0 90.0)
           (-90.0 90.0)
  end
  begin
     id 26 
     name rradius
     direction -1 -4.48967e-011 5.63677e-027   
     length 3.38287   
     axis 180 30 90   XYZ
    dof rx
    limits (-10.0 170.0)
  end
  begin
     id 27 
     name rwrist
     direction -1 -4.48967e-011 4.76501e-027   
     length 1.69144   
     axis -3.27502e-015 -90 -90   XYZ
    dof ry
    limits (-180.0 0.0)
  end
  begin
     id 28
     name rhand
     direction -1 -4.48902e-011 9.53292e-027   
     length 0.817967   
     axis -6.08098e-015 -90 -90   XYZ
    dof rx rz
    limits (-90.0 90.0)
           (-45.0 45.0)
  end
  begin
     id 29
     name rfingers
     direction -1 -4.49012e-011 1.90561e-026   
     length 0.659466   
     axis -1.21619e-014 -90 -90   XYZ
    dof rx
    limits (0.0 90.0)
  end
  begin
     id 30
     name rthumb
     direction -0.707107 -6.34944e-011 0.707107   
     length 0.946865   
     axis -90 -45 9.86923e-015   XYZ
    dof rx rz
    limits (-45.0 45.0)
           (-45.0 45.0)
  end
:hierarchy
  begin
    root lhipjoint rhipjoint lowerback
    lhipjoint lfemur
    lfemur ltibia
    ltibia lfoot
    lfoot ltoes
    rhipjoint rfemur
    rfemur rtibia
    rtibia rfoot
    rfoot rtoes
    lowerback upperback
    upperback thorax
    thorax lowerneck lclavicle rclavicle
    lowerneck upperneck
    upperneck head
    lclavicle lhumerus
    lhumerus lradius
    lradius lwrist
    lwrist lhand lthumb
    lhand lfingers
    rclavicle rhumerus
    rhumerus rradius
    rradius rwrist
    rwrist rhand rthumb
    rhand rfingers
  end

#!OML:ASF F:\twosubjects\two\wednesday\Session 1\Justin1.ASF
:FULLY-SPECIFIED
:DEGREES
50
root 12.0898 17.4155 -9.01685 2.41346 7.23675 3.39497
lowerback 3.68922 -2.84557 -4.78855
upperback 0.617526 -3.94274 2.84268
thorax -0.903871 -1.96505 5.7904
lowerneck -14.2349 -4.25174 -10.3964
upperneck 21.2821 -3.82161 1.78137
head 9.32558 -2.43161 1.86323
rclavicle -3.54831e-014 2.94201e-014
rhumerus -66.5513 -49.1471 -18.6972
rradius 40.3726
rwrist -53.8919
rhand -35.0934 22.9968
rfingers 7.12502
rthumb -8.2349 -6.82271
lclavicle -3.54831e-014 2.94201e-014
lhumerus -28.1166 6.8201 75.0402
lradius 50.984
lwrist -6.03311
lhand -1.72188 34.4089
lfingers 7.12502
lthumb 23.9401 62.9365
rfemur -29.9252 -2.28342 17.0806
rtibia 16.6465
rfoot -5.66513 -7.48044
rtoes -6.68022
lfemur 4.22079 -2.71285 -27.484
ltibia 19.8158
lfoot -18.3857 -8.00072
ltoes -3.36098
51
root 12.0886 17.4467 -8.84832 2.45285 7.58106 3.35571
lowerback 3.49684 -2.9464 -5.08293
upperback 0.84258 -4.07865 2.98408
thorax -0.513578 -2.05246 6.08771
lowerneck -14.2313 -4.27988 -10.2085
upperneck 20.9915 -3.89291 1.72018
head 9.22142 -2.44895 1.8024
rclavicle -3.77691e-015 -1.11319e-014
rhumerus -65.9543 -49.6572 -18.7522
rradius 40.4733
rwrist -54.2575
rhand -36.3829 23.9718
rfingers 7.12502
rthumb -9.47931 -5.79498
lclavicle -3.77691e-015 -1.11319e-014
lhumerus -27.7544 7.36824 74.7801
lradius 51.0387
lwrist -6.14223
lhand -0.594823 36.4082
lfingers 7.12502
lthumb 25.0205 64.7896
rfemur -28.7795 -1.38638 16.7411
rtibia 13.0191
rfoot -5.41221 -7.60489
rtoes -6.48633
lfemur 4.45222 -2.46649 -27.2234
ltibia 20.1121
lfoot -18.3674 -8.71701
ltoes -1.27537
52
root 12.0986 17.4873 -8.68537 2.89027 8.08258 3.87531
lowerback 3.26611 -2.92146 -5.60253
upperback 0.762497 -4.05469 2.90896
thorax -0.439475 -2.0413 6.29159
lowerneck -14.1512 -4.4176 -10.3507
upperneck 20.9307 -4.13131 2.03151
head 9.20995 -2.53652 1.90391
rclavicle -4.85035e-014 1.82882e-014
rhumerus -66.3517 -50.3366 -17.6338
rradius 40.3596
rwrist -54.3558
rhand -37.1774 24.9403
rfingers 7.12502
rthumb -10.2457 -4.79019
lclavicle -4.85035e-014 1.82882e-014
lhumerus -27.703 7.2354 74.7344
lradius 51.2664
lwrist -6.14755
lhand -1.42163 36.4933
lfingers 7.12502
lthumb 24.228 64.9827
rfemur -28.3374 -1.68212 16.1616
rtibia 10.3623
rfoot -5.37668 -6.95255
rtoes -8.50615
lfemur 4.46582 -1.94599 -27.5867
ltibia 19.9376
lfoot -18.1723 -9.63938
ltoes -3.9804
53
root 12.1186 17.5047 -8.52293 3.21233 8.73612 4.21603
lowerback 3.30545 -2.87079 -5.72651
upperback 0.641379 -3.99403 2.92128
thorax -0.586522 -2.00219 6.38114
lowerneck -14.2915 -4.70701 -10.9728
upperneck 21.1979 -4.48 2.52183
head 9.38228 -2.70028 2.12722
rclavicle 5.40694e-014 -2.54444e-014
rhumerus -66.7291 -50.825 -16.4586
rradius 40.3591
rwrist -54.8216
rhand -37.5133 25.4862
rfingers 7.12502
rthumb -10.5698 -4.22805
lclavicle 5.40694e-014 -2.54444e-014
lhumerus -27.5894 7.06373 74.8992
lradius 51.3499
lwrist -6.21535
lhand -1.79758 36.0333
lfingers 7.12502
lthumb 23.8675 64.5704
rfemur -28.0646 -2.42366 15.8739
rtibia 8.64317
rfoot -5.71911 -6.33864
rtoes -9.85162
lfemur 4.50618 -4.16694 -27.8746
ltibia 19.6233
lfoot -15.3655 -11.3508
ltoes 16.8739
54
root 12.1277 17.4123 -8.34909 3.30161 9.10765 3.84507
lowerback 3.39357 -2.87584 -5.35842
upperback 0.51436 -3.99074 3.08626
thorax -0.781428 -1.99066 6.35593
lowerneck -14.1643 -4.8739 -10.9877
upperneck 21.3273 -4.70244 2.42409
head 9.4197 -2.81927 2.06849
rclavicle 5.05907e-014 -8.74653e-015
rhumerus -66.483 -50.7226 -16.3747
rradius 40.6505
rwrist -55.6871
rhand -37.1616 25.4453
rfingers 7.12502
rthumb -10.2306 -4.28593
lclavicle 5.05907e-014 -8.74653e-015
lhumerus -27.729 7.12669 74.7047
lradius 51.3223
lwrist -6.23642
lhand -1.74134 36.0136
lfingers 7.12502
lthumb 23.9215 64.5436
rfemur -28.3898 -2.74624 16.4382
rtibia 8.46585
rfoot -6.34059 -6.01202
rtoes -10.4456
lfemur 5.90824 -3.0137 -27.3304
ltibia 18.9387
lfoot -16.544 -10.9177
ltoes 3.99127
55
root 12.1359 17.3792 -8.16569 3.28832 9.34156 3.52012
lowerback 3.40317 -2.84741 -5.11619
upperback 0.432705 -3.94306 3.20958
thorax -0.886122 -1.96154 6.35076
lowerneck -13.7863 -5.00915 -10.7806
upperneck 21.1548 -4.92712 2.16658
head 9.29357 -2.93368 1.92321
rclavicle 1.04362e-014 -1.82882e-014
rhumerus -66.1464 -50.5404 -16.4783
rradius 40.9812
rwrist -56.4346
rhand -37.5878 25.5575
rfingers 7.12502
rthumb -10.6417 -4.15307
lclavicle 1.04362e-014 -1.82882e-014
lhumerus -28.0832 7.11158 74.4671
lradius 51.4027
lwrist -6.09318
lhand -1.6955 36.0867
lfingers 7.12502
lthumb 23.9654 64.6109
rfemur -29.1678 -2.9147 16.9663
rtibia 9.94642
rfoot -7.30028 -5.65779
rtoes -11.5627
lfemur 7.27946 -2.65186 -26.8697
ltibia 17.787
lfoot -16.3566 -10.7262
ltoes -1.04734
56
root 12.1518 17.3847 -7.98126 3.21864 9.70218 3.84644
lowerback 3.33416 -2.83593 -5.39038
upperback 0.617563 -3.93457 3.15749
thorax -0.642297 -1.97044 6.44039
lowerneck -13.6806 -5.13948 -11.0934
upperneck 21.0095 -5.15186 2.61864
head 9.26001 -3.01225 2.10319
rclavicle -4.87022e-014 -3.18055e-015
rhumerus -65.7647 -51.1373 -16.3946
rradius 41.0146
rwrist -56.4699
rhand -38.5338 26.3012
rfingers 7.12502
rthumb -11.554 -3.3603
lclavicle -4.87022e-014 -3.18055e-015
lhumerus -27.8908 7.24187 74.3725
lradius 51.1927
lwrist -5.92427
lhand -1.63947 35.6822
lfingers 7.12502
lthumb 24.0191 64.1993
rfemur -29.8934 -3.3083 16.7206
rtibia 12.1163
rfoot -8.17149 -5.12708
rtoes -13.1619
lfemur 8.98968 -4.12912 -27.3278
ltibia 16.489
lfoot -14.7932 -10.9484
ltoes 6.6989
57
root 12.1607 17.3866 -7.8013 3.23728 10.1788 4.44019
lowerback 3.37692 -3.04174 -6.06521
upperback 0.623419 -4.23764 2.99185
thorax -0.577502 -2.12469 6.65714
lowerneck -13.0148 -5.0008 -10.9817
upperneck 20.7855 -5.10199 2.76879
head 9.05417 -2.96581 2.15699
rclavicle -5.19822e-014 1.27222e-014
rhumerus -65.046 -51.4591 -16.8892
rradius 40.9236
rwrist -56.1669
rhand -38.5381 26.6726
rfingers 7.12502
rthumb -11.5582 -2.98869
lclavicle -5.19822e-014 1.27222e-014
lhumerus -28.2234 7.70089 73.8081
lradius 50.9566
lwrist -5.72481
lhand -1.58682 35.3818
lfingers 7.12502
lthumb 24.0696 63.8922
rfemur -30.0828 -3.79013 16.2096
rtibia 13.4483
rfoot -8.01965 -4.64625
rtoes -15.6269
lfemur 10.6785 -7.6779 -28.2977
ltibia 16.0001
lfoot -12.7375 -11.1052
ltoes 28.3616
58
root 12.1711 17.3759 -7.62304 3.249 10.4677 4.69392
lowerback 3.48212 -3.1296 -6.37816
upperback 0.501298 -4.37431 2.9598
thorax -0.720162 -2.1838 6.81545
lowerneck -12.3569 -4.99766 -10.9225
upperneck 20.6605 -5.15002 2.58356
head 8.88792 -3.00597 2.09078
rclavicle 4.55217e-014 -1.19271e-014
rhumerus -64.4262 -51.4428 -17.2085
rradius 40.9819
rwrist -56.1041
rhand -37.9746 26.3007
rfingers 7.12502
rthumb -11.0148 -3.39028
lclavicle 4.55217e-014 -1.19271e-014
lhumerus -28.9391 8.21889 73.3979
lradius 51.0551
lwrist -5.74278
lhand -1.44617 35.488
lfingers 7.12502
lthumb 24.2045 63.9806
rfemur -30.2141 -3.94263 15.9924
rtibia 14.7297
rfoot -7.56378 -4.32822
rtoes -14.2124
lfemur 11.5717 -8.32993 -28.5649
ltibia 15.871
lfoot -11.7911 -11.3655
ltoes 32.0834
59
root 12.1817 17.3597 -7.43969 3.26982 10.4314 4.46603
lowerback 3.49161 -2.75887 -5.97295
upperback 0.514726 -3.86193 3.1138
thorax -0.812001 -1.92415 6.73846
lowerneck -12.7887 -5.48149 -11.8431
upperneck 21.094 -5.67907 3.083
head 9.20597 -3.27808 2.33438
rclavicle 9.74045e-015 9.54166e-015
rhumerus -64.7094 -52.0265 -16.2651
rradius 41.1965
rwrist -56.4444
rhand -37.8691 26.4363
rfingers 7.12502
rthumb -10.913 -3.26006
lclavicle 9.74045e-015 9.54166e-015
lhumerus -28.8272 8.15522 73.8111
lradius 50.8862
lwrist -5.9445
lhand -1.22628 35.4847
lfingers 7.12502
lthumb 24.4153 63.9491
rfemur -30.4976 -3.64688 16.2714
rtibia 16.1583
rfoot -7.23369 -4.175
rtoes -9.77933
lfemur 11.7882 -6.40354 -27.9452
ltibia 15.8484
lfoot -11.6159 -11.9008
ltoes 22.279
60
root 12.1816 17.3541 -7.25501 3.36125 10.65 4.12313
lowerback 3.48889 -2.53982 -5.54562
upperback 0.517042 -3.55109 3.23059
thorax -0.876606 -1.76651 6.61106
lowerneck -13.2893 -5.8784 -12.1015
upperneck 21.5122 -6.13841 3.20815
head 9.49793 -3.50219 2.34696
rclavicle 2.78299e-015 2.70347e-014
rhumerus -64.6959 -52.6036 -15.9946
rradius 41.547
rwrist -57.1379
rhand -38.3416 27.5073
rfingers 7.12502
rthumb -11.3687 -2.16451
lclavicle 2.78299e-015 2.70347e-014
lhumerus -28.746 8.07126 73.944
lradius 50.6249
lwrist -6.10681
lhand -1.19704 35.2722
lfingers 7.12502
lthumb 24.4433 63.7327
rfemur -30.8117 -3.1968 16.5941
rtibia 17.6416
rfoot -6.83161 -4.40774
rtoes -11.065
lfemur 11.7622 -4.48056 -27.1724
ltibia 15.8803
lfoot -12.2685 -12.1263
ltoes 3.50695
